<?xml version="1.0" standalone="no"?>
<!DOCTYPE svg PUBLIC "-//W3C//DTD SVG 20010904//EN"
 "http://www.w3.org/TR/2001/REC-SVG-20010904/DTD/svg10.dtd">
<svg version="1.0" xmlns="http://www.w3.org/2000/svg"
 width="1024.000000pt" height="1024.000000pt" viewBox="0 0 1024.000000 1024.000000"
 preserveAspectRatio="xMidYMid meet">

<g transform="translate(0.000000,1024.000000) scale(0.100000,-0.100000)"
fill="#000000" stroke="none">
<path d="M0 5120 l0 -5120 5120 0 5120 0 0 5120 0 5120 -5120 0 -5120 0 0
-5120z m8475 3726 c80 -22 125 -45 198 -98 124 -92 206 -211 242 -353 19 -76
19 -234 0 -309 -44 -169 -166 -324 -318 -402 -155 -80 -371 -84 -532 -9 -191
89 -323 267 -355 479 -50 334 183 654 514 707 65 10 186 3 251 -15z m-6486
-57 c73 -16 182 -72 248 -127 99 -83 200 -239 186 -290 -3 -12 -10 -22 -15
-22 -7 0 -6 -5 1 -13 13 -16 5 -28 -15 -20 -8 3 -17 -4 -22 -18 -5 -13 -11
-18 -16 -11 -3 6 -2 13 4 17 6 4 7 11 4 17 -4 7 -2 8 4 4 8 -5 10 -1 5 10 -5
14 -7 14 -17 -4 -8 -15 -15 -19 -26 -12 -8 5 -19 6 -25 2 -17 -11 -35 -11 -35
0 0 6 6 8 14 5 8 -3 17 1 20 9 9 23 7 34 -4 34 -5 0 -6 -7 -3 -17 4 -11 3 -14
-6 -9 -6 4 -19 2 -28 -6 -15 -12 -15 -11 -4 10 7 13 10 26 7 30 -3 3 -6 0 -6
-6 0 -7 -7 -12 -15 -12 -8 0 -15 5 -15 10 0 6 -13 23 -28 40 l-28 29 24 -72
c34 -101 29 -217 -13 -303 -37 -76 -119 -158 -192 -192 -51 -24 -70 -27 -158
-27 -92 0 -106 3 -167 32 -81 38 -155 109 -187 178 -12 28 -27 58 -32 68 -5
10 -7 22 -4 27 3 5 0 12 -6 16 -8 5 -9 3 -4 -6 5 -9 4 -11 -3 -6 -7 4 -13 17
-13 29 -1 17 -2 18 -6 4 -12 -47 37 -234 67 -252 6 -4 8 -10 5 -15 -3 -5 -1
-11 5 -15 6 -4 8 -10 5 -15 -3 -5 3 -14 12 -20 13 -7 14 -10 3 -8 -17 3 -62
-37 -53 -46 4 -3 -1 -6 -10 -6 -10 0 -17 -5 -17 -12 0 -6 -3 -9 -6 -6 -3 4 0
17 7 30 12 22 11 23 -8 5 -11 -9 -22 -14 -26 -11 -3 3 -11 3 -17 -1 -8 -5 -8
-11 1 -23 6 -10 0 -3 -15 13 -44 50 -46 53 -40 68 3 8 1 18 -5 22 -7 3 -8 0
-5 -9 3 -9 3 -16 0 -16 -12 0 -47 94 -68 180 -40 169 -7 352 88 486 153 217
396 310 653 253z m3468 -48 c64 -30 132 -98 164 -166 67 -139 20 -326 -103
-411 -53 -37 -140 -66 -150 -51 -6 9 -8 9 -8 -1 0 -16 -425 -16 -510 0 -108
20 -192 85 -242 187 -32 65 -33 205 -2 272 32 69 91 128 159 161 l60 28 295 0
c268 0 299 -2 337 -19z m-2187 -91 c33 -33 20 -83 -27 -101 -58 -22 -105 51
-62 97 27 29 62 31 89 4z m582 3 c39 -35 9 -103 -46 -103 -52 0 -76 75 -34
104 29 21 57 20 80 -1z m2938 -136 c43 -62 104 -97 220 -128 l45 -12 -39 -9
c-25 -5 -43 -4 -51 2 -8 7 -15 7 -19 1 -3 -5 0 -12 6 -15 7 -2 2 -4 -12 -3
-14 1 -28 7 -32 12 -5 7 -10 7 -15 0 -5 -5 -19 -12 -33 -13 -14 -2 -26 -8 -28
-13 -2 -5 -11 -9 -20 -9 -9 0 -33 -15 -52 -33 l-34 -33 -24 28 c-13 15 -27 26
-32 23 -4 -3 -19 4 -33 15 -26 21 -47 26 -47 12 0 -15 36 -42 45 -35 4 5 5 2
1 -4 -4 -7 -3 -13 2 -13 6 0 13 -7 16 -16 4 -10 -4 -7 -24 9 -16 14 -39 29
-51 32 -13 4 -18 12 -15 21 3 8 1 12 -4 9 -14 -8 -81 5 -75 15 3 5 0 12 -6 16
-8 5 -9 3 -4 -6 6 -10 2 -12 -16 -7 -13 4 -35 7 -49 8 -23 0 -23 1 -5 8 11 5
46 17 79 27 119 37 192 106 223 213 l16 55 22 -62 c12 -34 33 -77 45 -95z
m-3249 -11 c26 -68 63 -104 129 -122 30 -9 59 -19 63 -23 4 -4 -19 -15 -53
-24 -77 -22 -116 -58 -140 -127 -10 -30 -22 -55 -26 -55 -4 0 -15 24 -24 54
-24 71 -54 99 -137 127 -37 12 -61 24 -53 27 128 42 172 76 192 151 7 25 16
45 21 43 5 -1 18 -25 28 -51z m-1101 -197 c-13 -23 -17 -24 -17 -4 0 8 5 15
11 15 6 0 6 4 -2 8 -8 5 -10 16 -6 27 7 17 8 16 16 -4 4 -13 4 -30 -2 -42z
m4252 -34 c-3 -5 -7 -4 -10 3 -2 7 -8 10 -13 7 -5 -4 -6 1 -3 9 5 12 9 13 19
3 7 -7 10 -16 7 -22z m22 -21 c3 -8 2 -12 -4 -9 -6 3 -10 10 -10 16 0 14 7 11
14 -7z m-4254 -3 c0 -14 -23 -19 -45 -9 -18 8 -18 8 2 4 13 -2 26 0 29 5 7 12
14 12 14 0z m1391 -92 c27 -27 21 -66 -12 -92 -24 -17 -30 -18 -55 -6 -22 11
-30 22 -32 48 -6 62 55 94 99 50z m-584 3 c6 -4 14 -19 18 -34 13 -50 -54 -87
-97 -54 -22 16 -23 59 -2 80 16 17 61 21 81 8z m-1727 -362 c-8 -5 -17 -7 -19
-4 -3 3 1 9 9 14 8 5 17 7 19 4 3 -3 -1 -9 -9 -14z m5511 -430 c160 -30 298
-157 345 -316 18 -65 16 -220 -4 -216 -7 1 -17 -9 -22 -23 -12 -32 -19 -32
-12 0 4 24 -11 35 -23 15 -5 -9 -69 -5 -85 5 -5 3 -10 -1 -13 -7 -3 -10 -7
-10 -19 -1 -8 7 -18 10 -21 6 -12 -12 -7 -23 11 -24 15 -1 14 -2 -2 -6 -14 -4
-15 -7 -6 -13 8 -5 9 -10 2 -14 -7 -4 -16 10 -24 35 -6 23 -14 37 -16 30 -2
-6 -7 -9 -10 -7 -4 2 -7 -7 -7 -20 0 -13 4 -24 9 -24 5 0 6 -3 3 -7 -9 -8 -47
27 -47 44 0 7 -4 13 -10 13 -14 0 -12 -23 3 -40 6 -8 3 -7 -9 3 -24 20 -49 23
-38 5 6 -9 3 -9 -9 1 -21 16 -51 7 -43 -14 7 -18 -1 -18 -34 0 l-25 13 25 10
c14 5 32 11 40 14 8 2 10 7 4 10 -14 9 -74 -22 -74 -39 0 -9 -10 -13 -34 -11
-19 1 -32 6 -29 11 3 4 11 6 19 3 8 -3 14 -1 14 4 0 6 -11 10 -25 10 -13 0
-28 8 -34 17 -5 10 -13 15 -16 11 -4 -4 0 -14 9 -23 20 -21 21 -32 1 -15 -8 7
-22 9 -31 6 -9 -4 -23 -1 -31 5 -12 10 -13 8 -9 -15 3 -15 1 -24 -5 -21 -5 4
-7 11 -4 16 10 16 -7 10 -20 -7 -11 -15 -12 -15 -12 0 0 9 4 16 8 16 4 0 10 7
13 16 6 15 4 15 -19 0 -22 -14 -25 -15 -25 -1 0 22 -31 18 -37 -5 -7 -27 -23
-25 -24 3 -1 21 -1 21 -9 -3 -6 -19 -8 -20 -9 -6 -1 16 -6 17 -33 11 -18 -3
-55 -8 -82 -10 l-48 -3 6 32 6 31 -16 -24 c-13 -18 -18 -20 -26 -10 -6 10 -7
6 -2 -11 4 -14 12 -28 18 -32 6 -4 1 -6 -11 -6 -12 1 -19 7 -16 15 7 19 -8 16
-23 -4 -7 -10 -14 -13 -14 -6 0 6 5 15 10 18 6 3 10 14 9 23 0 11 -3 12 -6 5
-6 -15 -33 -17 -33 -3 0 6 -4 10 -10 10 -6 0 -6 -9 0 -26 15 -39 12 -42 -13
-12 -21 24 -25 25 -47 13 -14 -7 -38 -11 -54 -8 -18 4 -31 1 -37 -8 -8 -12
-11 -12 -19 1 -9 13 -12 12 -25 -4 -8 -11 -15 -16 -15 -10 0 16 15 32 35 37
16 4 14 5 -7 6 -14 0 -29 -5 -31 -11 -4 -10 -8 -10 -15 1 -7 9 -12 10 -16 2
-11 -17 -26 -13 -27 7 0 12 -3 11 -10 -7 -6 -16 -6 -28 2 -38 10 -11 9 -12 -5
-7 -9 3 -17 18 -17 33 -1 26 -1 26 -9 -4 l-8 -30 -1 35 c-1 24 -4 31 -10 21
-7 -11 -10 -10 -13 5 -4 14 -7 11 -16 -16 -9 -26 -11 -28 -8 -8 3 24 1 25 -18
15 -12 -7 -32 -21 -45 -32 l-24 -20 12 22 c12 24 15 54 3 38 -15 -21 -71 -23
-83 -3 -7 10 -9 10 -9 1 0 -7 9 -22 20 -33 15 -15 16 -20 6 -20 -8 0 -17 -6
-20 -12 -3 -7 -4 -4 -3 6 1 10 -4 21 -10 23 -7 3 -13 -2 -13 -11 0 -9 -4 -16
-10 -16 -5 0 -10 4 -10 9 0 5 -20 6 -44 4 -26 -3 -46 -1 -50 6 -13 21 -26 11
-27 -21 -2 -30 -2 -31 -6 -6 -3 17 -12 30 -26 34 -12 4 -26 12 -30 18 -5 7 -7
6 -6 -4 3 -28 -1 -37 -16 -37 -11 0 -12 4 -4 14 8 8 8 13 1 13 -26 0 -40 -13
-36 -33 3 -15 1 -13 -7 6 -6 15 -17 27 -24 27 -7 0 -15 6 -18 13 -2 6 -8 9
-12 5 -4 -4 -2 -21 5 -38 7 -17 10 -33 6 -37 -3 -3 -6 1 -6 10 0 9 -4 17 -10
17 -5 0 -10 9 -10 19 0 11 -5 23 -11 27 -8 5 -10 -1 -7 -20 7 -33 -9 -34 -18
-1 -3 14 -10 25 -15 25 -12 0 -11 -17 1 -25 13 -8 13 -25 0 -25 -5 0 -12 11
-16 25 -3 14 -10 22 -15 19 -6 -3 -7 -14 -4 -25 4 -11 2 -19 -4 -19 -6 0 -11
12 -12 28 0 24 -1 24 -8 7 -5 -11 -6 -24 -3 -29 3 -5 0 -6 -6 -2 -6 3 -13 2
-17 -4 -8 -13 -25 -13 -25 0 0 6 6 10 14 10 19 0 28 14 20 34 -8 22 -27 20
-20 -1 4 -13 -3 -22 -22 -31 -24 -11 -29 -10 -44 8 -10 12 -19 16 -23 10 -3
-5 -1 -10 5 -10 6 0 8 -5 4 -11 -5 -8 -10 -6 -16 5 -5 9 -13 14 -19 11 -5 -4
-9 -2 -9 3 0 6 7 12 15 16 8 3 15 11 15 18 0 10 -3 9 -9 -1 -5 -8 -16 -11 -26
-7 -13 4 -16 2 -12 -9 4 -8 1 -17 -5 -21 -7 -4 -6 -10 3 -16 11 -8 11 -9 -1
-5 -8 2 -14 11 -14 19 1 10 -7 15 -22 14 -21 -1 -21 -2 -7 -19 15 -16 15 -17
-5 -14 -12 2 -25 6 -28 10 -14 13 -33 7 -28 -8 4 -11 2 -13 -9 -9 -9 3 -18 12
-21 21 -4 8 -13 13 -21 9 -10 -3 -15 1 -16 12 0 11 -2 12 -6 4 -3 -7 1 -20 9
-29 11 -14 11 -16 -1 -9 -8 5 -17 3 -22 -5 -7 -11 -9 -11 -9 3 0 9 -5 20 -12
24 -6 4 -8 3 -4 -4 3 -6 0 -14 -7 -19 -8 -4 -17 -15 -20 -23 -4 -12 -6 -11 -6
3 -1 20 -41 24 -42 5 0 -10 -2 -10 -6 0 -10 26 -25 11 -20 -20 3 -18 3 -28 1
-21 -3 7 -12 9 -20 6 -7 -3 -12 -8 -9 -13 7 -11 -41 -49 -88 -67 -46 -19 -142
-23 -169 -8 -12 7 6 10 61 10 72 0 80 2 126 35 61 44 105 122 105 186 0 81
-66 181 -139 211 -83 35 -198 8 -257 -59 -43 -48 -57 -97 -52 -174 3 -43 0
-65 -8 -68 -7 -3 -15 -2 -18 2 -16 16 -33 9 -28 -11 5 -20 6 -20 13 -1 7 17 8
17 8 1 1 -12 5 -16 14 -10 23 14 32 10 63 -32 19 -25 26 -42 18 -42 -7 0 -11
3 -9 7 2 4 -11 21 -29 39 -30 29 -34 30 -40 14 -6 -15 -8 -15 -16 -3 -8 12
-10 13 -10 1 0 -9 -6 -7 -19 7 -20 23 -31 20 -31 -10 0 -11 -5 -16 -10 -13 -6
4 -8 16 -5 28 5 19 4 19 -10 -3 l-16 -25 7 24 c5 18 3 22 -7 16 -8 -6 -11 -4
-7 7 4 8 1 15 -7 15 -10 0 -11 -7 -4 -25 5 -14 8 -27 5 -29 -2 -3 -7 5 -11 16
-4 13 -11 18 -22 14 -12 -5 -14 -3 -8 7 5 9 4 11 -3 6 -9 -5 -9 -13 -2 -26 9
-17 8 -19 -7 -13 -15 6 -16 4 -5 -9 10 -13 10 -18 1 -24 -8 -4 -9 -3 -5 4 8
14 4 15 -18 6 -9 -3 -16 -12 -16 -20 0 -8 -5 -14 -11 -14 -5 0 -7 -5 -3 -12 5
-7 2 -9 -9 -5 -8 3 -33 -4 -54 -15 -42 -23 -145 -30 -176 -12 -14 8 -5 10 37
6 95 -8 187 44 233 131 45 85 8 223 -76 282 -39 27 -50 30 -125 30 -73 0 -87
-3 -124 -28 -67 -44 -96 -97 -100 -181 -3 -61 0 -78 22 -119 34 -63 33 -72 -1
-19 -27 42 -44 51 -24 13 10 -17 9 -20 -4 -15 -8 4 -15 10 -15 15 0 4 -16 7
-35 5 -19 -1 -35 2 -35 7 0 6 -3 7 -7 3 -5 -4 1 -14 11 -22 11 -8 15 -14 10
-14 -6 0 -19 6 -29 14 -16 11 -17 16 -7 29 11 13 10 15 -8 10 -15 -4 -19 -11
-15 -24 4 -11 2 -19 -4 -19 -6 0 -11 4 -11 9 0 5 -14 8 -31 7 -23 -1 -29 -5
-26 -17 3 -10 -5 -22 -19 -30 -18 -9 -21 -15 -12 -21 10 -6 8 -8 -4 -8 -9 0
-33 -11 -53 -24 -42 -29 -100 -40 -155 -31 -65 11 -53 20 25 20 65 0 78 3 116
30 68 48 102 104 107 175 6 78 -16 137 -69 185 -51 46 -80 57 -151 56 -151 0
-254 -140 -214 -291 19 -73 6 -91 -63 -85 -34 3 -39 2 -21 -5 23 -7 23 -8 4
-9 -14 -1 -21 -7 -20 -18 1 -22 -26 -24 -31 -3 -4 13 -3 13 6 0 14 -20 20 -10
10 18 -10 28 -29 29 -29 1 0 -11 -5 -17 -10 -14 -6 4 -8 11 -5 16 7 11 -22 11
-49 0 -16 -6 -17 -9 -6 -16 9 -5 15 -4 18 3 5 16 19 15 25 -2 3 -7 0 -13 -6
-13 -7 0 -23 -1 -36 -1 -21 -2 -22 -4 -10 -19 12 -16 12 -17 -1 -7 -20 14 -70
17 -70 4 0 -6 -4 -10 -10 -10 -17 0 -13 316 5 385 43 168 157 284 325 331 58
16 3806 20 3891 4z m-5174 -465 c66 -20 148 -93 179 -160 27 -56 32 -151 13
-215 -31 -103 -141 -188 -253 -197 -167 -14 -303 99 -323 267 -10 86 41 201
112 256 77 59 178 77 272 49z m6675 -45 c20 -6 47 -19 60 -29 l23 -19 -49 5
c-35 4 -47 3 -42 -6 4 -6 2 -11 -3 -11 -6 0 -11 -9 -11 -20 0 -11 -4 -20 -8
-20 -5 0 -15 -11 -22 -25 -7 -14 -20 -25 -27 -25 -10 0 -13 -7 -9 -22 6 -22 6
-22 -6 1 -12 24 -12 24 -30 -15 -10 -22 -16 -29 -13 -17 5 18 2 20 -15 16 -17
-4 -20 -11 -16 -29 5 -18 2 -24 -9 -24 -9 0 -14 4 -11 8 3 5 -1 9 -9 9 -11 0
-12 -5 -3 -21 11 -20 10 -20 -7 -6 -14 11 -17 11 -11 1 7 -10 3 -12 -15 -6
-23 7 -24 7 -4 -9 15 -12 16 -15 5 -16 -8 0 -20 -10 -25 -22 -9 -20 -63 -44
-74 -32 -3 3 -5 38 -4 79 1 55 7 85 24 120 56 111 189 169 311 135z m-1848
-63 c7 -6 6 -7 -4 -4 -8 2 -16 12 -17 23 -2 13 -1 15 4 4 3 -8 11 -19 17 -23z
m-806 9 c-7 -8 -15 -12 -17 -11 -5 6 10 25 20 25 5 0 4 -6 -3 -14z m72 4 c0
-5 -4 -10 -10 -10 -5 0 -10 5 -10 10 0 6 5 10 10 10 6 0 10 -4 10 -10z m57
-22 c-3 -8 -6 -5 -6 6 -1 11 2 17 5 13 3 -3 4 -12 1 -19z m106 16 c11 -11 -3
-24 -18 -18 -8 4 -12 10 -9 15 6 11 18 12 27 3z m397 -22 c0 -15 -2 -15 -10
-2 -13 20 -13 33 0 25 6 -3 10 -14 10 -23z m283 8 c-3 -11 -9 -17 -15 -14 -5
3 -4 12 3 20 16 19 18 18 12 -6z m225 -5 c-3 -3 -9 2 -12 12 -6 14 -5 15 5 6
7 -7 10 -15 7 -18z m232 10 c0 -8 -2 -15 -4 -15 -2 0 -6 7 -10 15 -3 8 -1 15
4 15 6 0 10 -7 10 -15z m-425 -5 c3 -5 -1 -10 -10 -10 -9 0 -13 5 -10 10 3 6
8 10 10 10 2 0 7 -4 10 -10z m472 4 c-3 -3 -12 -4 -19 -1 -8 3 -5 6 6 6 11 1
17 -2 13 -5z m-747 -8 c0 -3 -4 -8 -10 -11 -5 -3 -10 -1 -10 4 0 6 5 11 10 11
6 0 10 -2 10 -4z m121 -13 c12 -16 12 -17 -1 -6 -8 6 -26 13 -40 16 l-25 4 26
2 c15 0 33 -7 40 -16z m-1168 -8 c-3 -9 -8 -14 -10 -11 -3 3 -2 9 2 15 9 16
15 13 8 -4z m-610 -15 c3 -12 0 -20 -8 -20 -8 0 -11 8 -8 20 3 11 7 20 8 20 1
0 5 -9 8 -20z m-1313 -1 c0 8 3 11 6 8 4 -4 1 -14 -7 -23 -12 -15 -11 -16 11
-9 14 4 22 4 18 0 -4 -4 -19 -9 -33 -11 -22 -2 -24 0 -14 12 9 11 9 14 0 14
-7 0 -9 5 -5 11 4 8 9 7 15 -2 7 -12 9 -12 9 0z m-424 -21 c10 -13 12 -17 4
-10 -21 18 -29 15 -40 -14 -10 -24 -30 -25 -30 -1 0 7 4 6 10 -3 8 -12 10 -11
10 6 0 15 16 44 25 44 1 0 10 -10 21 -22z m56 -48 c18 -11 29 -20 23 -20 -5 0
-23 9 -40 20 -39 26 -25 26 17 0z m5215 -12 c-3 -8 -6 -5 -6 6 -1 11 2 17 5
13 3 -3 4 -12 1 -19z m-156 -525 c1 -104 0 -194 -1 -202 -1 -9 4 -12 14 -8 9
4 16 2 16 -2 0 -5 8 -7 19 -4 12 3 24 -3 35 -18 13 -19 16 -20 16 -7 0 12 5
15 17 11 11 -4 14 -3 9 5 -4 7 -2 12 3 12 6 0 11 -7 11 -15 0 -8 5 -15 11 -15
5 0 7 5 4 10 -3 6 -1 10 4 10 6 0 11 -11 11 -25 0 -16 4 -23 14 -19 7 3 16 -2
20 -11 3 -9 10 -14 15 -11 5 3 12 -1 15 -9 4 -12 0 -14 -22 -8 -25 6 -26 5 -9
-11 9 -9 21 -15 26 -11 5 3 12 1 16 -5 3 -5 15 -10 25 -10 13 0 18 -5 13 -15
-5 -14 -7 -14 -23 0 -9 8 -23 15 -31 15 -8 0 -2 -8 14 -18 15 -9 27 -19 27
-23 0 -3 12 -5 28 -2 23 3 24 2 7 -6 -19 -8 -19 -9 -2 -16 15 -6 16 -10 5 -16
-10 -7 -9 -9 5 -9 9 0 17 -7 17 -15 0 -8 11 -17 25 -21 13 -3 23 -11 22 -18
-1 -6 10 -12 24 -14 l26 -3 6 -211 c4 -116 7 -329 7 -473 l0 -262 -37 -7 c-21
-3 -136 -6 -255 -6 l-218 0 0 818 c0 450 3 822 7 825 3 4 19 7 35 7 l28 0 1
-187z m-1223 147 l352 0 0 -1215 c0 -668 -2 -1215 -5 -1215 -6 0 -513 496
-667 653 -86 87 -101 98 -127 95 -25 -2 -121 -94 -541 -512 -380 -379 -510
-515 -510 -532 0 -17 118 -140 460 -480 253 -252 460 -461 460 -466 0 -12
-3161 -10 -3235 2 -141 23 -301 139 -368 268 -72 136 -67 12 -67 1794 l0 1607
73 3 c58 2 1616 2 4175 -2z m-4996 -587 c50 -53 67 -92 78 -181 6 -44 9 -346
7 -704 l-2 -628 -192 0 -193 0 0 90 0 90 118 0 c106 0 121 2 137 20 17 18 17
21 1 45 -16 24 -19 25 -136 25 l-120 0 0 215 0 215 112 0 c117 0 148 10 148
50 0 32 -25 39 -141 42 l-114 3 -3 83 -3 82 115 0 c124 0 146 8 146 55 0 37
-28 45 -149 45 l-111 0 0 210 0 210 98 0 c124 0 142 5 149 41 3 16 9 29 12 29
4 0 23 -17 43 -37z m-464 -110 l-3 -88 -159 -3 c-121 -2 -161 1 -168 10 -4 7
-8 44 -8 81 0 61 2 69 23 77 12 5 89 9 170 9 l148 1 -3 -87z m-3 -263 l0 -75
-161 -3 -161 -2 -7 37 c-3 21 -6 57 -6 81 l0 42 167 -2 167 -3 1 -75z m-4
-235 c1 -30 2 -65 2 -77 1 -23 0 -23 -160 -26 -160 -2 -161 -2 -167 20 -8 31
-8 123 1 131 3 4 78 7 165 7 l158 0 1 -55z m5 -221 c-3 -9 -6 -44 -6 -79 l0
-63 -102 -1 c-57 -1 -128 -4 -159 -7 l-56 -6 -7 32 c-3 18 -6 57 -6 86 l0 54
171 0 c152 0 170 -2 165 -16z m-8 -323 l-1 -79 -154 -7 c-85 -4 -156 -6 -157
-4 -2 2 -6 41 -10 87 l-5 82 164 0 163 0 0 -79z m7108 -85 c-11 -53 -58 -119
-110 -151 -132 -81 -323 2 -360 158 l-7 28 242 -2 241 -1 -6 -32z m-7219 -106
l114 0 -2 -85 -2 -85 -157 0 -157 0 -7 80 c-4 44 -4 85 0 91 4 7 23 9 52 5 25
-3 96 -6 159 -6z m5449 -306 c170 -169 299 -298 287 -289 -13 10 -23 13 -23 8
0 -13 29 -27 49 -24 8 2 12 -3 8 -13 -3 -8 2 -20 11 -28 15 -12 16 -11 3 5
-12 15 -12 17 0 12 8 -3 21 -15 28 -28 8 -12 10 -19 6 -15 -5 4 -14 0 -22 -10
-14 -16 -14 -16 -9 2 5 13 2 17 -9 13 -8 -4 -17 -1 -21 5 -5 7 -2 8 6 3 8 -5
11 -4 6 3 -4 6 -13 9 -21 6 -8 -4 -12 -11 -8 -17 3 -6 1 -7 -5 -3 -9 5 -9 13
-1 29 7 12 8 19 4 15 -4 -4 -16 -3 -26 3 -15 8 -19 6 -20 -8 0 -16 -1 -16 -9
2 -7 17 -9 17 -9 3 -1 -19 -20 -20 -34 -3 -5 6 -6 -2 -3 -17 5 -21 3 -28 -9
-28 -13 0 -12 -4 5 -22 23 -25 35 -60 27 -80 -3 -7 -6 -2 -6 12 -1 14 -6 32
-12 40 -8 12 -9 9 -4 -9 6 -20 4 -23 -11 -17 -18 6 -18 5 0 -9 11 -8 16 -15
10 -15 -5 0 -54 43 -109 96 -114 108 -140 128 -155 119 -20 -12 -10 -36 36
-85 42 -45 44 -49 24 -55 -13 -4 -19 -12 -16 -21 7 -19 -3 -18 -26 3 -16 14
-23 15 -38 5 -24 -15 -30 -15 -30 -2 0 6 8 10 18 11 14 0 14 2 -3 8 -11 5 -25
6 -31 4 -6 -2 -38 22 -70 54 -88 87 -162 153 -170 153 -4 0 -16 7 -26 17 -10
9 -21 13 -24 10 -7 -6 92 -124 151 -181 16 -16 23 -24 14 -17 -13 9 -18 8 -22
-4 -4 -8 -2 -14 2 -12 5 1 9 -1 10 -5 4 -30 -2 -44 -24 -54 -15 -8 -23 -8 -22
-2 1 6 -4 13 -11 15 -8 3 -10 -2 -6 -14 3 -10 -1 -7 -9 6 -8 14 -22 26 -32 27
-9 1 -20 6 -23 10 -4 4 1 4 10 1 10 -3 19 -3 22 1 2 4 -7 9 -21 10 -25 2 -146
107 -271 235 l-53 54 198 196 c109 108 201 197 204 197 3 0 144 -138 315 -306z
m-642 -343 c88 -88 161 -167 162 -175 3 -20 -1 -20 -32 0 -20 14 -22 19 -12
33 7 9 1 6 -13 -6 -14 -13 -30 -23 -36 -23 -6 0 -13 -7 -17 -15 -3 -8 0 -15 6
-15 7 0 7 -4 -1 -13 -6 -8 -7 -18 -3 -23 15 -19 -46 34 -108 93 -103 97 -154
142 -162 143 -31 1 24 -82 123 -187 33 -34 59 -63 59 -65 0 -3 -6 -5 -14 -5
-8 0 -15 3 -14 6 2 18 -3 31 -13 31 -5 0 -7 -4 -4 -10 3 -5 3 -15 -1 -21 -4
-7 -18 0 -38 18 -72 65 -89 78 -83 61 13 -37 -37 -12 -86 43 -35 41 -55 55
-68 52 -25 -7 -24 -19 6 -55 14 -16 23 -34 19 -39 -3 -5 2 -9 10 -9 9 0 16 -2
16 -4 0 -2 3 -13 6 -23 6 -16 5 -16 -10 2 -17 20 -17 20 -11 -2 4 -14 2 -23
-4 -23 -6 0 -11 5 -11 10 0 6 -6 10 -12 10 -18 1 -68 46 -69 62 0 9 -2 10 -5
1 -3 -7 -13 -10 -22 -7 -12 4 -9 -1 7 -15 16 -15 19 -21 8 -21 -8 0 -22 11
-30 24 -16 24 -15 26 131 174 81 83 152 150 157 151 6 1 82 -71 169 -158z
m-4604 -36 c-4 -20 -27 -57 -51 -83 -54 -60 -54 -59 -44 -43 5 9 -1 8 -18 -4
-25 -16 -60 -89 -60 -123 0 -9 -6 -23 -14 -30 -7 -8 -10 -18 -7 -23 3 -6 7
-32 7 -59 2 -47 1 -48 -17 -32 -68 62 -60 221 15 289 13 12 50 34 82 49 32 15
71 42 85 61 15 18 28 33 28 33 1 0 -2 -16 -6 -35z m5010 -11 c0 -8 5 -12 10
-9 6 3 10 1 10 -4 0 -6 -4 -11 -9 -11 -5 0 -14 -12 -20 -27 -9 -25 -10 -24 -5
12 4 30 3 36 -5 25 -9 -13 -11 -13 -11 1 0 9 3 19 7 22 11 12 23 8 23 -9z
m2085 -14 c27 -29 12 -57 -68 -129 -40 -36 -101 -92 -137 -125 -176 -165 -201
-186 -225 -186 -15 0 -29 9 -36 22 -10 19 -6 27 44 72 142 131 189 175 284
267 55 55 105 99 110 99 6 0 18 -9 28 -20z m-1804 -27 l24 -28 -30 25 c-16 14
-32 26 -34 28 -2 1 0 2 6 2 5 0 20 -12 34 -27z m-221 5 c0 -4 -9 -8 -21 -8
-11 0 -18 4 -15 8 3 5 12 9 21 9 8 0 15 -4 15 -9z m-110 -18 c0 -5 -4 -10 -10
-10 -5 0 -10 5 -10 10 0 6 5 10 10 10 6 0 10 -4 10 -10z m140 6 c0 -2 -7 -7
-16 -10 -8 -3 -12 -2 -9 4 6 10 25 14 25 6z m-280 -130 c0 -6 -5 -3 -11 7 -6
9 -15 14 -21 11 -7 -4 -8 -2 -4 5 9 14 36 -3 36 -23z m-609 7 c13 -15 12 -15
-8 -4 -24 12 -29 21 -14 21 5 0 15 -7 22 -17z m-4345 -23 c0 -11 -4 -20 -8
-20 -4 0 -8 9 -8 20 0 11 4 20 8 20 4 0 8 -9 8 -20z m4736 -44 c10 5 10 4 1
-6 -9 -10 -15 -10 -26 -2 -8 7 -18 8 -22 4 -5 -4 -5 -1 -1 6 6 10 11 10 21 2
8 -7 20 -8 27 -4z m2343 -989 c180 -50 261 -91 309 -155 21 -29 23 -38 14 -75
-13 -58 -24 -65 -22 -14 2 25 0 31 -3 14 -3 -21 -9 -27 -20 -23 -12 5 -14 1
-10 -14 5 -19 3 -20 -11 -8 -9 7 -20 17 -23 21 -3 5 -9 2 -12 -7 -4 -10 -1
-16 7 -16 9 0 12 -9 8 -26 -3 -19 -7 -22 -13 -12 -12 20 -33 16 -39 -7 -3 -11
-13 -20 -22 -20 -10 0 -23 -7 -30 -16 -16 -21 -58 -35 -58 -19 0 6 5 8 11 4 7
-4 10 -1 7 7 -3 8 2 19 11 26 14 10 13 11 -6 7 -11 -3 -23 -14 -26 -25 -3 -10
-11 -19 -17 -19 -7 0 -10 6 -7 13 3 8 -1 14 -8 14 -8 0 -12 -9 -9 -23 2 -13 0
-26 -6 -29 -6 -4 -11 6 -11 22 l-1 28 -8 -30 c-4 -16 -8 -23 -9 -15 -1 12 -5
11 -16 -4 -15 -19 -15 -19 -15 1 0 12 5 24 10 26 6 3 5 4 -2 3 -7 -1 -14 -12
-16 -24 -4 -24 -17 -29 -26 -9 -3 6 -2 -1 1 -17 5 -25 3 -28 -11 -23 -13 5
-19 1 -23 -13 -3 -11 -9 -17 -14 -15 -4 3 -6 13 -3 23 5 14 2 14 -13 -3 -19
-20 -83 -60 -83 -51 0 13 13 35 19 32 4 -3 18 4 31 14 24 19 24 19 3 13 -13
-3 -23 -10 -23 -15 0 -5 -4 -7 -9 -3 -5 3 -12 1 -16 -5 -4 -6 -11 -8 -16 -5
-5 3 -6 0 -3 -8 4 -11 -1 -13 -22 -9 -23 4 -26 2 -22 -15 5 -17 2 -19 -16 -15
-20 5 -20 5 -3 -12 9 -10 17 -23 16 -29 0 -9 -2 -8 -6 1 -2 6 -11 12 -19 12
-8 0 -14 8 -15 18 0 13 -2 12 -9 -5 -5 -13 -17 -23 -27 -23 -25 -1 -74 -29
-51 -30 9 0 19 -4 22 -9 3 -4 -6 -6 -19 -3 -14 2 -25 0 -25 -7 0 -11 -55 -9
-67 3 -4 3 8 4 26 2 17 -2 34 0 37 5 3 5 -3 9 -13 10 -10 0 -34 2 -53 3 -19 2
-29 1 -22 -1 6 -3 12 -11 12 -18 0 -8 8 -19 18 -25 14 -8 12 -9 -10 -4 -22 5
-28 2 -28 -10 0 -9 -4 -16 -10 -16 -5 0 -10 9 -10 20 0 11 -4 20 -10 20 -5 0
-10 -8 -10 -18 0 -10 -6 -26 -13 -37 -11 -14 -16 -15 -22 -5 -5 9 -4 11 3 6 7
-4 12 -5 12 -2 0 2 3 12 7 21 5 16 3 16 -18 4 -13 -7 -27 -12 -31 -11 -8 2
-12 -13 -9 -35 3 -18 -16 -16 -23 2 -12 31 -36 16 -37 -22 -1 -32 -2 -34 -8
-14 -4 14 -12 26 -19 27 -7 1 -8 0 -2 -3 12 -6 -34 -33 -56 -33 -7 0 -15 -4
-18 -9 -4 -5 2 -7 13 -4 10 3 22 0 25 -6 4 -7 1 -8 -8 -5 -10 4 -18 -1 -22
-11 -5 -13 -9 -14 -16 -3 -7 11 -11 10 -21 -3 -6 -9 -24 -18 -39 -21 l-28 -5
0 71 c0 73 14 178 30 231 47 151 65 199 92 241 91 145 229 242 393 278 100 22
264 15 380 -17z m-6666 -2 c130 -31 278 -139 340 -248 68 -121 91 -289 57
-419 -25 -93 -22 -90 -82 -91 -17 0 -20 -4 -16 -21 5 -18 7 -18 10 -3 4 17 22
24 22 8 0 -13 -26 -32 -33 -24 -4 3 -7 1 -7 -6 0 -7 -5 -9 -12 -5 -16 10 -80
6 -91 -5 -7 -7 -5 -16 4 -28 12 -16 12 -17 -2 -6 -9 7 -19 10 -22 6 -4 -3 -7
2 -8 13 0 12 -7 5 -20 -21 -10 -22 -19 -32 -19 -22 0 9 -4 17 -10 17 -6 0 -6
-9 -1 -24 9 -21 6 -24 -27 -34 -31 -10 -39 -9 -48 3 -10 14 -12 14 -18 0 -3
-8 0 -15 6 -15 9 0 9 -3 0 -12 -9 -9 -15 -9 -24 0 -7 7 -19 12 -27 12 -13 -1
-12 -4 3 -15 11 -8 17 -18 13 -22 -4 -3 -16 2 -27 12 -20 18 -20 17 -20 -13 0
-18 -4 -32 -9 -32 -4 0 -6 12 -3 26 3 19 1 25 -7 20 -6 -4 -11 -14 -11 -22 0
-8 -4 -13 -9 -10 -5 4 -12 0 -15 -6 -3 -10 -9 -8 -19 5 -16 19 -27 22 -27 7 0
-6 15 -17 33 -25 17 -8 25 -14 16 -15 -8 0 -24 6 -34 14 -11 8 -26 11 -34 8
-12 -4 -11 -7 5 -13 21 -8 23 -8 -81 -13 -27 -2 -59 -6 -69 -11 -15 -6 -17 -5
-11 5 6 10 4 12 -8 7 -26 -10 -125 53 -188 120 -205 215 -192 572 28 773 131
120 321 167 502 125z m6928 -302 c-4 -3 -1 -13 6 -22 11 -14 10 -14 -5 -2 -16
12 -16 31 -1 31 4 0 3 -3 0 -7z m-3263 -129 c3 -9 3 -52 0 -95 -6 -63 -10 -79
-23 -79 -13 -1 -12 -3 4 -16 19 -16 19 -16 -6 -12 -18 3 -30 -1 -38 -15 -12
-18 -13 -18 -25 -1 -12 16 -14 15 -20 -9 -3 -15 -12 -27 -18 -27 -9 0 -9 3 0
12 17 17 15 33 -3 18 -8 -7 -28 -10 -44 -8 -17 2 -28 2 -26 -2 2 -3 0 -12 -6
-20 -7 -13 -9 -12 -9 3 0 9 -5 17 -11 17 -5 0 -7 -5 -3 -11 5 -8 1 -8 -14 0
-25 13 -331 25 -434 16 -86 -8 -123 -30 -116 -70 3 -16 0 -22 -11 -21 -9 1
-15 -6 -15 -16 2 -23 -12 -23 -25 -1 -8 15 -10 14 -17 -11 l-7 -29 -13 24 -13
24 -1 -23 c0 -13 -4 -21 -9 -18 -5 3 -7 15 -4 25 3 10 0 22 -5 25 -6 3 -8 -2
-5 -13 3 -13 -2 -20 -17 -24 -15 -4 -21 -11 -17 -21 4 -9 2 -16 -3 -16 -6 0
-10 8 -10 18 0 14 -2 15 -10 2 -8 -12 -10 -12 -16 3 -3 9 -3 24 0 33 3 8 2 12
-4 9 -6 -3 -10 -13 -10 -21 0 -8 -4 -14 -10 -14 -5 0 -10 -9 -10 -21 0 -11 -4
-17 -10 -14 -11 7 -14 372 -4 399 5 14 61 16 519 16 463 0 513 -2 519 -16z
m3001 -4 c3 -5 1 -10 -4 -10 -6 0 -11 5 -11 10 0 6 2 10 4 10 3 0 8 -4 11 -10z
m-25 -10 c0 -5 -8 -10 -17 -10 -15 0 -16 2 -3 10 19 12 20 12 20 0z m-5340
-20 c11 -11 20 -29 20 -40 0 -49 -71 -78 -103 -42 -55 61 24 141 83 82z m582
3 c31 -28 22 -70 -19 -92 -30 -15 -40 -14 -63 9 -55 55 24 136 82 83z m4565
-59 c-3 -3 -12 -4 -19 -1 -8 3 -5 6 6 6 11 1 17 -2 13 -5z m-4832 -181 c14
-13 50 -30 80 -38 49 -15 82 -35 56 -35 -27 0 -122 -44 -145 -67 -15 -14 -33
-51 -42 -81 -18 -60 -24 -58 -43 8 -18 63 -65 105 -140 126 -34 10 -58 20 -54
24 4 3 35 14 67 24 72 22 110 58 126 117 18 66 20 66 46 2 13 -32 35 -68 49
-80z m3367 77 c75 -36 81 -161 9 -199 -10 -6 -93 -11 -184 -12 -185 -2 -204 3
-234 65 -30 63 3 134 73 156 42 14 303 6 336 -10z m1238 -10 c0 -5 -5 -10 -11
-10 -5 0 -7 5 -4 10 3 6 8 10 11 10 2 0 4 -4 4 -10z m-2609 -43 c-10 -9 -11
-8 -5 6 3 10 9 15 12 12 3 -3 0 -11 -7 -18z m-121 -1 c0 -3 -4 -8 -10 -11 -5
-3 -10 -1 -10 4 0 6 5 11 10 11 6 0 10 -2 10 -4z m30 -6 c0 -5 -4 -10 -10 -10
-5 0 -10 5 -10 10 0 6 5 10 10 10 6 0 10 -4 10 -10z m2540 -11 c0 -6 -4 -7
-10 -4 -5 3 -10 11 -10 16 0 6 5 7 10 4 6 -3 10 -11 10 -16z m-64 -16 c-10
-10 -19 5 -10 18 6 11 8 11 12 0 2 -7 1 -15 -2 -18z m-49 -29 c-3 -3 -12 -4
-19 -1 -8 3 -5 6 6 6 11 1 17 -2 13 -5z m-2775 -53 c227 -1 256 -3 254 -17 -1
-8 -9 -20 -17 -25 -8 -5 -128 -9 -267 -9 -215 0 -253 2 -258 15 -4 8 -15 15
-25 15 -17 0 -18 2 -7 14 7 8 24 13 38 11 14 -1 140 -3 282 -4z m-2902 -30 c0
-3 -15 -6 -33 -5 -48 1 -55 6 -22 13 31 7 55 4 55 -8z m2400 9 c0 -5 -4 -10
-10 -10 -5 0 -10 5 -10 10 0 6 5 10 10 10 6 0 10 -4 10 -10z m-2514 -67 c-10
-10 -19 5 -10 18 6 11 8 11 12 0 2 -7 1 -15 -2 -18z m29 -3 c3 -5 1 -10 -4
-10 -6 0 -11 5 -11 10 0 6 2 10 4 10 3 0 8 -4 11 -10z m1109 -75 c24 -18 24
-64 0 -82 -41 -30 -94 -5 -94 45 0 47 53 68 94 37z m593 -11 c15 -24 15 -29 2
-53 -19 -34 -57 -38 -87 -11 -16 15 -21 28 -16 43 15 51 73 63 101 21z m-2097
-70 c0 -2 -13 -4 -30 -4 -16 0 -30 4 -30 8 0 5 14 7 30 4 17 -2 30 -6 30 -8z"/>
<path d="M1351 7845 c0 -5 3 -15 7 -22 5 -9 12 -6 21 10 13 20 13 21 -1 9 -13
-10 -17 -10 -21 0 -3 7 -6 9 -6 3z"/>
<path d="M6978 8373 c7 -3 16 -2 19 1 4 3 -2 6 -13 5 -11 0 -14 -3 -6 -6z"/>
<path d="M7170 6871 c0 -5 7 -12 16 -15 14 -5 15 -4 4 9 -14 17 -20 19 -20 6z"/>
<path d="M5945 6861 c-3 -5 -1 -12 5 -16 5 -3 10 1 10 9 0 18 -6 21 -15 7z"/>
<path d="M5860 6856 c0 -2 7 -6 15 -10 8 -3 15 -1 15 4 0 6 -7 10 -15 10 -8 0
-15 -2 -15 -4z"/>
<path d="M7065 6850 c-3 -5 -1 -10 4 -10 6 0 11 5 11 10 0 6 -2 10 -4 10 -3 0
-8 -4 -11 -10z"/>
<path d="M7275 6850 c3 -5 11 -10 16 -10 6 0 7 5 4 10 -3 6 -11 10 -16 10 -6
0 -7 -4 -4 -10z"/>
<path d="M5710 6840 c0 -5 -8 -10 -17 -10 -29 0 17 -26 47 -27 l25 -1 -26 12
c-14 6 -24 17 -22 24 3 6 2 12 -1 12 -3 0 -6 -4 -6 -10z"/>
<path d="M5751 6838 c-1 -10 1 -18 3 -18 2 0 11 -3 20 -6 9 -3 16 -1 16 5 0 6
-6 11 -14 11 -8 0 -17 6 -19 13 -3 7 -6 5 -6 -5z"/>
<path d="M6230 6840 c0 -5 7 -7 15 -4 8 4 15 8 15 10 0 2 -7 4 -15 4 -8 0 -15
-4 -15 -10z"/>
<path d="M6493 6843 c-15 -5 -17 -23 -4 -23 5 0 11 7 15 15 3 8 4 15 3 14 -1
0 -8 -3 -14 -6z"/>
<path d="M6870 6840 c0 -5 5 -10 11 -10 5 0 7 5 4 10 -3 6 -8 10 -11 10 -2 0
-4 -4 -4 -10z"/>
<path d="M6925 6840 c-3 -5 1 -10 10 -10 9 0 13 5 10 10 -3 6 -8 10 -10 10 -2
0 -7 -4 -10 -10z"/>
<path d="M5283 6825 c-14 -15 -17 -35 -7 -35 8 0 33 32 34 43 0 11 -14 8 -27
-8z"/>
<path d="M6550 6829 c0 -5 5 -7 10 -4 6 3 10 8 10 11 0 2 -4 4 -10 4 -5 0 -10
-5 -10 -11z"/>
<path d="M5640 6820 c0 -5 7 -10 16 -10 8 0 12 5 9 10 -3 6 -10 10 -16 10 -5
0 -9 -4 -9 -10z"/>
<path d="M3585 6801 c-3 -5 -2 -12 3 -15 5 -3 9 1 9 9 0 17 -3 19 -12 6z"/>
<path d="M3117 6763 c-4 -3 -7 -11 -7 -17 0 -6 5 -5 12 2 6 6 9 14 7 17 -3 3
-9 2 -12 -2z"/>
<path d="M2877 6693 c-4 -3 -7 -11 -7 -17 0 -6 5 -5 12 2 6 6 9 14 7 17 -3 3
-9 2 -12 -2z"/>
<path d="M1762 6568 c-42 -21 -43 -79 -2 -110 22 -16 30 -17 58 -7 56 19 67
64 27 104 -26 27 -47 30 -83 13z"/>
<path d="M5865 5939 c-32 -11 -86 -39 -119 -62 -55 -40 -62 -42 -118 -38 l-60
3 -191 -189 c-238 -235 -412 -404 -930 -904 l-408 -394 -129 -264 c-72 -145
-130 -275 -130 -288 0 -13 -13 -44 -30 -68 -16 -24 -94 -151 -173 -282 -79
-131 -163 -267 -185 -302 -51 -78 -56 -125 -17 -143 22 -10 37 -7 103 21 42
18 142 58 222 88 331 125 996 388 1027 406 12 6 273 260 580 562 307 303 654
645 771 760 117 116 220 223 229 239 10 19 13 43 10 69 -5 38 -2 45 43 94 175
192 87 544 -167 670 -69 34 -84 38 -172 40 -78 3 -107 -1 -156 -18z m207 -175
c62 -21 128 -78 128 -111 0 -26 -38 -68 -126 -140 l-39 -32 -109 109 c-124
123 -124 123 -31 166 58 28 113 30 177 8z m-343 -250 c88 -93 90 -96 75 -119
-13 -20 -47 -43 -50 -33 -3 11 -34 -28 -34 -44 0 -16 -3 -17 -21 -7 -12 6 -19
7 -15 1 10 -17 -5 -44 -19 -32 -16 13 -57 -33 -49 -57 4 -13 3 -14 -3 -5 -7
10 -15 8 -33 -8 -13 -11 -27 -20 -32 -20 -4 0 -8 -7 -8 -15 0 -8 -7 -15 -15
-15 -8 0 -23 -8 -32 -19 -92 -98 -126 -130 -135 -124 -6 3 -8 1 -4 -5 3 -6 -2
-13 -13 -17 -10 -3 -26 -20 -35 -38 -8 -18 -16 -26 -16 -19 0 7 -22 -11 -50
-39 -27 -28 -47 -55 -44 -60 3 -5 -4 -9 -15 -9 -11 0 -24 -6 -28 -12 -11 -18
-58 -56 -49 -40 4 7 2 12 -4 12 -7 0 -10 -6 -7 -14 3 -8 -1 -20 -10 -28 -14
-11 -15 -10 -10 12 6 23 6 22 -6 -3 -7 -15 -17 -24 -22 -20 -4 5 -5 2 -1 -4
10 -19 -4 -39 -15 -22 -6 10 -9 8 -9 -8 0 -16 -6 -23 -20 -23 -14 0 -18 -5
-13 -17 5 -12 3 -14 -7 -8 -10 6 -12 4 -7 -8 4 -11 1 -17 -9 -17 -8 0 -17 -7
-20 -15 -4 -8 -11 -15 -16 -15 -6 0 -8 7 -5 15 4 8 3 16 -1 19 -4 3 -8 -11 -9
-30 0 -19 3 -34 8 -34 5 0 9 5 9 10 0 6 5 10 12 10 8 0 7 -5 -3 -15 -20 -20
-53 -9 -44 14 5 12 4 13 -6 4 -10 -10 -9 -16 1 -28 7 -8 10 -18 6 -22 -3 -3
-6 -2 -6 4 0 6 -7 14 -16 17 -11 4 -15 2 -11 -6 2 -7 -2 -19 -9 -26 -11 -10
-14 -10 -14 0 -1 7 -8 0 -17 -17 -9 -17 -18 -25 -20 -17 -3 6 -9 12 -15 12 -6
0 -8 -7 -4 -15 3 -8 1 -15 -4 -15 -5 0 -7 -7 -4 -15 4 -9 0 -15 -9 -15 -8 0
-28 -16 -44 -35 -17 -19 -35 -35 -42 -35 -6 0 -11 -8 -11 -17 0 -15 -2 -16
-10 -3 -8 13 -10 12 -10 -2 0 -21 -16 -24 -23 -5 -3 6 -5 -3 -4 -21 0 -18 -3
-35 -6 -39 -4 -3 -7 3 -7 15 0 11 -5 24 -11 28 -8 4 -9 0 -4 -15 4 -12 2 -21
-4 -21 -6 0 -11 -5 -11 -11 0 -6 -7 -17 -15 -25 -13 -14 -15 -14 -15 1 0 9 -5
13 -10 10 -6 -4 -8 -11 -5 -16 4 -5 -5 -13 -18 -18 -14 -6 -28 -15 -32 -21 -6
-9 -2 -9 13 -1 11 6 27 11 34 10 7 0 3 -4 -10 -10 -13 -5 -21 -13 -18 -18 3
-5 -1 -12 -10 -15 -8 -3 -12 -2 -9 4 3 6 2 10 -4 10 -6 0 -13 -11 -17 -24 -3
-14 -11 -23 -17 -20 -20 7 -39 -12 -40 -38 -1 -16 -7 -25 -16 -23 -17 2 -48
-25 -46 -40 1 -5 0 -7 -2 -2 -8 13 -25 7 -20 -7 4 -10 1 -13 -9 -9 -10 4 -17
-2 -21 -16 -3 -12 -16 -24 -29 -27 -13 -3 -24 -14 -24 -23 0 -14 -2 -14 -10
-1 -5 8 -10 10 -10 5 0 -9 -17 -31 -74 -97 -9 -10 -18 -29 -22 -43 -3 -14 -9
-25 -13 -25 -4 0 -14 -11 -21 -25 l-14 -25 -33 32 c-18 17 -33 40 -33 50 0 10
15 49 34 86 18 37 57 121 86 186 l53 120 211 206 c116 113 378 365 581 560
204 194 429 411 501 482 72 70 138 128 146 128 9 0 57 -43 107 -96z m-72 -256
c-3 -8 -6 -5 -6 6 -1 11 2 17 5 13 3 -3 4 -12 1 -19z m-122 -118 c3 -5 1 -10
-4 -10 -6 0 -11 5 -11 10 0 6 2 10 4 10 3 0 8 -4 11 -10z m-75 -80 c0 -5 -5
-10 -11 -10 -5 0 -7 5 -4 10 3 6 8 10 11 10 2 0 4 -4 4 -10z m-122 -125 c-3
-3 -9 2 -12 12 -6 14 -5 15 5 6 7 -7 10 -15 7 -18z m-62 -41 c-9 -9 -20 -14
-23 -10 -4 3 2 13 13 20 25 18 31 12 10 -10z m-46 -48 c0 -3 -4 -8 -10 -11 -5
-3 -10 -1 -10 4 0 6 5 11 10 11 6 0 10 -2 10 -4z m-85 -93 c-10 -3 -31 -12
-45 -21 l-25 -16 20 22 c11 11 31 21 45 20 20 0 21 -1 5 -5z m-88 -85 c-3 -7
-5 -2 -5 12 0 14 2 19 5 13 2 -7 2 -19 0 -25z m-233 -228 c-6 -6 -10 -3 -10
10 0 13 4 16 10 10 7 -7 7 -13 0 -20z m-234 -224 c0 -3 -4 -8 -10 -11 -5 -3
-10 -1 -10 4 0 6 5 11 10 11 6 0 10 -2 10 -4z m-55 -36 c-3 -5 -12 -10 -18
-10 -7 0 -6 4 3 10 19 12 23 12 15 0z m-178 -166 c-3 -3 -12 -4 -19 -1 -8 3
-5 6 6 6 11 1 17 -2 13 -5z m-136 -87 c-10 -9 -11 -8 -5 6 3 10 9 15 12 12 3
-3 0 -11 -7 -18z m-256 -338 l50 -50 -26 -22 c-14 -12 -47 -40 -73 -62 -26
-22 -56 -44 -67 -49 -10 -5 -19 -13 -19 -18 0 -5 -4 -6 -10 -3 -5 3 -10 1 -10
-4 0 -15 -37 -14 -44 2 -3 6 -3 2 -1 -9 5 -17 -1 -24 -25 -33 -24 -8 -29 -7
-24 2 23 41 190 297 194 297 3 0 28 -23 55 -51z"/>
<path d="M6878 3699 c15 -16 16 -39 1 -39 -5 0 -7 5 -4 10 3 6 2 10 -4 10 -19
0 -19 -16 0 -28 11 -7 19 -8 19 -2 0 5 8 10 18 11 10 0 12 3 5 6 -7 2 -13 11
-13 18 0 7 -8 16 -17 20 -15 5 -16 4 -5 -6z"/>
<path d="M7031 3689 c-1 -20 54 -73 68 -65 6 4 11 12 11 18 0 6 -6 6 -15 -2
-13 -11 -15 -9 -13 10 2 13 -3 25 -12 27 -13 4 -13 3 0 -6 8 -5 11 -13 8 -16
-10 -10 -28 4 -38 29 -6 14 -9 16 -9 5z"/>
<path d="M6598 3671 c-16 -16 -16 -17 4 -18 11 -1 18 1 14 4 -3 3 -1 12 5 20
17 19 -3 15 -23 -6z"/>
<path d="M6630 3660 c0 -5 5 -10 10 -10 6 0 10 5 10 10 0 6 -4 10 -10 10 -5 0
-10 -4 -10 -10z"/>
<path d="M6375 3600 c-8 -13 -1 -24 14 -19 6 3 7 10 2 18 -6 10 -10 10 -16 1z"/>
<path d="M5922 3531 c13 -22 28 -28 28 -11 0 5 -9 14 -20 20 -19 10 -20 10 -8
-9z"/>
<path d="M6317 3526 c-3 -8 2 -20 11 -27 14 -11 15 -11 5 0 -6 7 -9 20 -6 27
3 8 3 14 0 14 -3 0 -7 -6 -10 -14z"/>
<path d="M6150 3521 c0 -4 11 -18 24 -30 19 -18 24 -19 29 -7 3 8 -1 20 -10
27 -17 15 -43 21 -43 10z m46 -28 c-7 -7 -26 7 -26 19 0 6 6 6 15 -2 9 -7 13
-15 11 -17z"/>
<path d="M8940 2261 c0 -6 4 -13 10 -16 6 -3 7 1 4 9 -7 18 -14 21 -14 7z"/>
<path d="M8785 2130 c-3 -5 -1 -10 4 -10 6 0 11 5 11 10 0 6 -2 10 -4 10 -3 0
-8 -4 -11 -10z"/>
<path d="M8270 1899 c0 -5 5 -7 10 -4 6 3 10 8 10 11 0 2 -4 4 -10 4 -5 0 -10
-5 -10 -11z"/>
<path d="M8230 1890 c0 -5 5 -10 10 -10 6 0 10 5 10 10 0 6 -4 10 -10 10 -5 0
-10 -4 -10 -10z"/>
<path d="M8035 1819 c-4 -6 -5 -12 -2 -15 2 -3 7 2 10 11 7 17 1 20 -8 4z"/>
<path d="M7887 1759 c7 -7 15 -10 18 -7 3 3 -2 9 -12 12 -14 6 -15 5 -6 -5z"/>
<path d="M7757 1664 c6 -16 19 -18 27 -5 3 5 -3 11 -13 14 -14 3 -18 1 -14 -9z"/>
<path d="M1976 2115 c-3 -8 -1 -15 4 -15 6 0 10 7 10 15 0 8 -2 15 -4 15 -2 0
-6 -7 -10 -15z"/>
<path d="M2006 2121 c-4 -5 -3 -16 0 -25 5 -12 2 -15 -10 -10 -20 7 -23 -31
-3 -39 8 -4 4 -12 -13 -26 -14 -11 -29 -16 -34 -11 -4 4 -17 -1 -28 -12 -16
-16 -18 -22 -7 -29 7 -4 10 -11 6 -15 -3 -4 -14 -1 -23 7 -14 11 -19 10 -34
-9 -21 -25 -27 -27 -33 -9 -2 6 -3 4 -1 -6 2 -12 -2 -17 -11 -13 -15 5 -39
-17 -29 -27 3 -3 -5 -3 -18 0 -18 4 -20 2 -8 -6 17 -12 14 -16 -19 -26 -18 -5
-22 -4 -16 5 5 9 4 11 -4 6 -6 -4 -9 -11 -6 -16 7 -11 -31 -23 -46 -15 -6 4
-13 -3 -17 -16 l-6 -24 -7 25 c-7 24 -7 24 -9 -5 -1 -25 -3 -27 -9 -10 -8 19
-8 19 -20 -4 -7 -12 -10 -34 -7 -47 9 -34 62 -91 115 -122 40 -24 57 -27 131
-27 66 0 95 5 130 21 158 75 212 282 111 429 -20 29 -34 39 -50 37 -17 -1 -22
2 -17 13 6 16 1 20 -8 6z m28 -46 c-7 -16 -24 -21 -24 -6 0 8 7 13 27 20 1 1
0 -6 -3 -14z m-192 -177 c-9 -9 -15 -9 -24 1 -11 10 -10 11 5 6 10 -5 17 -2
17 6 0 7 3 9 7 6 4 -4 1 -13 -5 -19z m-92 -52 c0 -3 -4 -8 -10 -11 -5 -3 -10
-1 -10 4 0 6 5 11 10 11 6 0 10 -2 10 -4z"/>
<path d="M1950 2041 c0 -6 5 -13 10 -16 6 -3 10 1 10 9 0 9 -4 16 -10 16 -5 0
-10 -4 -10 -9z"/>
<path d="M1760 1920 c-9 -6 -10 -10 -3 -10 6 0 15 5 18 10 8 12 4 12 -15 0z"/>
<path d="M1670 1876 c0 -8 4 -17 8 -20 4 -2 8 4 8 15 0 10 -4 19 -8 19 -4 0
-8 -6 -8 -14z"/>
<path d="M2305 1709 c-3 -4 1 -9 9 -12 14 -6 26 0 26 13 0 9 -30 9 -35 -1z"/>
<path d="M2208 1673 c7 -3 16 -2 19 1 4 3 -2 6 -13 5 -11 0 -14 -3 -6 -6z"/>
<path d="M2236 1661 c-3 -5 1 -11 9 -15 8 -3 15 -1 15 4 0 13 -18 22 -24 11z"/>
<path d="M2178 1653 c7 -3 16 -2 19 1 4 3 -2 6 -13 5 -11 0 -14 -3 -6 -6z"/>
<path d="M2075 1619 c-4 -6 -5 -12 -2 -15 2 -3 7 2 10 11 7 17 1 20 -8 4z"/>
<path d="M2025 1570 c-3 -5 -1 -10 4 -10 6 0 11 5 11 10 0 6 -2 10 -4 10 -3 0
-8 -4 -11 -10z"/>
<path d="M5550 1811 c0 -5 5 -13 10 -16 6 -3 10 -2 10 4 0 5 -4 13 -10 16 -5
3 -10 2 -10 -4z"/>
</g>
</svg>
